<svg xmlns="http://www.w3.org/2000/svg" xmlns:xlink="http://www.w3.org/1999/xlink" width="95" height="141" viewBox="0 0 95 141">
  <defs>
    <filter id="長方形_1358" x="0" y="0" width="95" height="141" filterUnits="userSpaceOnUse">
      <feOffset dy="3" input="SourceAlpha"/>
      <feGaussianBlur stdDeviation="3" result="blur"/>
      <feFlood flood-opacity="0.161"/>
      <feComposite operator="in" in2="blur"/>
      <feComposite in="SourceGraphic"/>
    </filter>
  </defs>
  <g id="グループ_554" data-name="グループ 554" transform="translate(-140.047 -521.087)">
    <g id="カード裏表紙" transform="translate(149.047 527.087)">
      <g transform="matrix(1, 0, 0, 1, -9, -6)" filter="url(#長方形_1358)">
        <rect id="長方形_1358-2" data-name="長方形 1358" width="77" height="123" transform="translate(9 6)" fill="#5b0f14"/>
      </g>
      <g id="グループ_200" data-name="グループ 200" transform="translate(2.952 95.892)">
        <path id="パス_1492" data-name="パス 1492" d="M24.756,383.788a4.856,4.856,0,0,1-3.22.447s-.487,3.014-6.773,2.727c0,0-1.735.231-1.7,3.325s.037,5.405.037,5.405" transform="translate(-12.82 -372.798)" fill="none" stroke="#936717" stroke-miterlimit="10" stroke-width="1"/>
        <path id="パス_1493" data-name="パス 1493" d="M24.592,384.167a4.855,4.855,0,0,0-.447,3.22s-3.014.487-2.727,6.773c0,0-.231,1.734-3.325,1.7s-5.405-.037-5.405-.037" transform="translate(-12.548 -373.07)" fill="none" stroke="#936717" stroke-miterlimit="10" stroke-width="1"/>
        <path id="パス_1494" data-name="パス 1494" d="M54.739,379.953a.95.95,0,1,1-1.321-1.321c.438-.438,1.454-.132,1.454-.132S55.177,379.515,54.739,379.953Z" transform="translate(-41.493 -368.931)" fill="none" stroke="#936717" stroke-miterlimit="10" stroke-width="1"/>
        <line id="線_26" data-name="線 26" y1="5.423" x2="5.486" transform="translate(2.65 14.808)" fill="none" stroke="#936717" stroke-miterlimit="10" stroke-width="1"/>
        <path id="パス_1495" data-name="パス 1495" d="M28.044,397.667s-2.023,1.435-3.222,1.317a1.693,1.693,0,0,0-1.74,1.293" transform="translate(-20.001 -382.751)" fill="none" stroke="#936717" stroke-miterlimit="10" stroke-width="1"/>
        <path id="パス_1496" data-name="パス 1496" d="M34.228,397.368s-1.435,2.023-1.317,3.222a1.693,1.693,0,0,1-1.294,1.74" transform="translate(-26.124 -382.537)" fill="none" stroke="#936717" stroke-miterlimit="10" stroke-width="1"/>
        <path id="パス_1497" data-name="パス 1497" d="M43.918,400.477a4.066,4.066,0,0,0,3.658,5.079c4.688.675,7.281-5.363,4.3-8.026,0,0,6.513.431,6,7.628" transform="translate(-34.877 -382.652)" fill="none" stroke="#936717" stroke-miterlimit="10" stroke-width="1"/>
        <path id="パス_1498" data-name="パス 1498" d="M17.463,358.991s-4.6.113-4.884-4.545,6.268-6.437,8.018-3.416c0,0,.083-6.476-7.775-6.08" transform="translate(-12.464 -344.931)" fill="none" stroke="#936717" stroke-miterlimit="10" stroke-width="1"/>
        <path id="パス_1499" data-name="パス 1499" d="M23.211,370.572c-.483-1.812-2.7-1.611-3.867-.483A2.812,2.812,0,0,0,22,374.56c3.263-.4,3.5-4.27,3.5-4.27,2.5.927,7.009-.6,7.009-.6a10.39,10.39,0,0,0-.564,7.291s-4.31.04-4.35,3.5,3.948,2.538,3.948,2.538,2.394-.546,1.259-3.42" transform="translate(-16.922 -362.354)" fill="none" stroke="#936717" stroke-miterlimit="10" stroke-width="1"/>
        <path id="パス_1500" data-name="パス 1500" d="M17.47,406.057v4.22l4.046.044" transform="translate(-15.978 -388.768)" fill="none" stroke="#936717" stroke-miterlimit="10" stroke-width="1"/>
        <path id="パス_1501" data-name="パス 1501" d="M80.544,417.721a.918.918,0,0,0-1.037.24.56.56,0,0,1-.453,1.022.919.919,0,0,0,.554.992L81,419.716l.3-.337v-.507Z" transform="translate(-60.136 -397.083)" fill="none" stroke="#936717" stroke-miterlimit="10" stroke-width="1"/>
        <path id="パス_1502" data-name="パス 1502" d="M14.45,353.108a.918.918,0,0,1-.239,1.038.56.56,0,0,0-1.022.453.919.919,0,0,1-.992-.554l.258-1.389.337-.3H13.3Z" transform="translate(-12.197 -350.256)" fill="none" stroke="#936717" stroke-miterlimit="10" stroke-width="1"/>
      </g>
      <g id="グループ_201" data-name="グループ 201" transform="translate(50.443 95.827)">
        <path id="パス_1503" data-name="パス 1503" d="M218.963,383.891a4.855,4.855,0,0,1,.447,3.22s3.014.487,2.727,6.773c0,0,.231,1.734,3.325,1.7s5.405-.037,5.405-.037" transform="translate(-207.973 -372.806)" fill="none" stroke="#936717" stroke-miterlimit="10" stroke-width="1"/>
        <path id="パス_1504" data-name="パス 1504" d="M219.343,383.512a4.854,4.854,0,0,0,3.219.447s.487,3.014,6.773,2.727c0,0,1.734.231,1.7,3.325s-.037,5.405-.037,5.405" transform="translate(-208.245 -372.534)" fill="none" stroke="#936717" stroke-miterlimit="10" stroke-width="1"/>
        <path id="パス_1505" data-name="パス 1505" d="M215.129,378.658a.95.95,0,1,1-1.321,1.321c-.438-.438-.132-1.454-.132-1.454S214.691,378.22,215.129,378.658Z" transform="translate(-204.106 -368.884)" fill="none" stroke="#936717" stroke-miterlimit="10" stroke-width="1"/>
        <line id="線_27" data-name="線 27" x1="5.423" y1="5.486" transform="translate(14.808 14.884)" fill="none" stroke="#936717" stroke-miterlimit="10" stroke-width="1"/>
        <path id="パス_1506" data-name="パス 1506" d="M232.842,397.656s1.435,2.023,1.317,3.222a1.693,1.693,0,0,0,1.293,1.741" transform="translate(-217.926 -382.678)" fill="none" stroke="#936717" stroke-miterlimit="10" stroke-width="1"/>
        <path id="パス_1507" data-name="パス 1507" d="M232.543,397.442s2.023,1.435,3.222,1.317a1.693,1.693,0,0,1,1.74,1.293" transform="translate(-217.712 -382.524)" fill="none" stroke="#936717" stroke-miterlimit="10" stroke-width="1"/>
        <path id="パス_1508" data-name="パス 1508" d="M235.653,358.68a4.066,4.066,0,0,0,5.079-3.658c.675-4.688-5.363-7.281-8.026-4.3,0,0,.43-6.513,7.628-6" transform="translate(-217.828 -344.7)" fill="none" stroke="#936717" stroke-miterlimit="10" stroke-width="1"/>
        <path id="パス_1509" data-name="パス 1509" d="M194.166,400.473s.113,4.6-4.545,4.884-6.437-6.267-3.416-8.018c0,0-6.476-.083-6.08,7.775" transform="translate(-180.106 -382.45)" fill="none" stroke="#936717" stroke-miterlimit="10" stroke-width="1"/>
        <path id="パス_1510" data-name="パス 1510" d="M205.748,378.748c-1.813.484-1.611,2.7-.483,3.867a2.812,2.812,0,0,0,4.471-2.659c-.4-3.263-4.27-3.5-4.27-3.5.927-2.5-.6-7.009-.6-7.009a10.39,10.39,0,0,0,7.291.564s.04,4.31,3.5,4.35,2.538-3.948,2.538-3.948-.546-2.394-3.42-1.259" transform="translate(-197.529 -362.016)" fill="none" stroke="#936717" stroke-miterlimit="10" stroke-width="1"/>
        <path id="パス_1511" data-name="パス 1511" d="M241.233,410.561h4.22l.044-4.046" transform="translate(-223.944 -389.031)" fill="none" stroke="#936717" stroke-miterlimit="10" stroke-width="1"/>
        <path id="パス_1512" data-name="パス 1512" d="M252.9,352.031a.918.918,0,0,0,.239,1.038.56.56,0,0,1,1.022.453.919.919,0,0,0,.992-.554l-.259-1.389-.337-.3h-.507Z" transform="translate(-232.259 -349.418)" fill="none" stroke="#936717" stroke-miterlimit="10" stroke-width="1"/>
        <path id="パス_1513" data-name="パス 1513" d="M188.284,417.947a.918.918,0,0,1,1.037.24.56.56,0,0,0,.453,1.022.919.919,0,0,1-.554.992l-1.388-.259-.3-.337V419.1Z" transform="translate(-185.432 -397.18)" fill="none" stroke="#936717" stroke-miterlimit="10" stroke-width="1"/>
      </g>
      <g id="グループ_202" data-name="グループ 202" transform="translate(50.378 2.982)">
        <path id="パス_1514" data-name="パス 1514" d="M219.067,28.56a4.855,4.855,0,0,1,3.22-.447s.486-3.014,6.773-2.727c0,0,1.734-.231,1.7-3.325s-.037-5.405-.037-5.405" transform="translate(-207.982 -16.594)" fill="none" stroke="#936717" stroke-miterlimit="10" stroke-width="1"/>
        <path id="パス_1515" data-name="パス 1515" d="M218.688,28.724a4.855,4.855,0,0,0,.447-3.22s3.014-.487,2.727-6.773c0,0,.231-1.735,3.325-1.7s5.405.037,5.405.037" transform="translate(-207.71 -16.866)" fill="none" stroke="#936717" stroke-miterlimit="10" stroke-width="1"/>
        <path id="パス_1516" data-name="パス 1516" d="M213.834,57.688a.95.95,0,1,1,1.321,1.321c-.438.438-1.453.132-1.453.132S213.4,58.126,213.834,57.688Z" transform="translate(-204.06 -45.755)" fill="none" stroke="#936717" stroke-miterlimit="10" stroke-width="1"/>
        <line id="線_28" data-name="線 28" x1="5.486" y2="5.423" transform="translate(14.884 2.724)" fill="none" stroke="#936717" stroke-miterlimit="10" stroke-width="1"/>
        <path id="パス_1517" data-name="パス 1517" d="M232.832,38.247s2.022-1.435,3.222-1.317a1.693,1.693,0,0,0,1.74-1.293" transform="translate(-217.854 -30.207)" fill="none" stroke="#936717" stroke-miterlimit="10" stroke-width="1"/>
        <path id="パス_1518" data-name="パス 1518" d="M232.617,32.576s1.435-2.023,1.317-3.222a1.693,1.693,0,0,1,1.293-1.74" transform="translate(-217.7 -24.451)" fill="none" stroke="#936717" stroke-miterlimit="10" stroke-width="1"/>
        <path id="パス_1519" data-name="パス 1519" d="M193.856,21.571a4.066,4.066,0,0,0-3.658-5.079c-4.688-.675-7.281,5.363-4.3,8.026,0,0-6.512-.43-6-7.628" transform="translate(-179.876 -16.44)" fill="none" stroke="#936717" stroke-miterlimit="10" stroke-width="1"/>
        <path id="パス_1520" data-name="パス 1520" d="M235.649,47.893s4.6-.113,4.884,4.545-6.267,6.437-8.018,3.416c0,0-.083,6.476,7.775,6.08" transform="translate(-217.626 -38.997)" fill="none" stroke="#936717" stroke-miterlimit="10" stroke-width="1"/>
        <path id="パス_1521" data-name="パス 1521" d="M213.924,36.7c.483,1.813,2.7,1.611,3.867.483a2.811,2.811,0,0,0-2.658-4.471c-3.263.4-3.5,4.27-3.5,4.27-2.5-.927-7.009.6-7.009.6a10.388,10.388,0,0,0,.564-7.291s4.31-.04,4.35-3.5-3.948-2.538-3.948-2.538-2.394.545-1.259,3.42" transform="translate(-197.192 -21.962)" fill="none" stroke="#936717" stroke-miterlimit="10" stroke-width="1"/>
        <path id="パス_1522" data-name="パス 1522" d="M245.737,25.666v-4.22l-4.046-.044" transform="translate(-224.207 -19.999)" fill="none" stroke="#936717" stroke-miterlimit="10" stroke-width="1"/>
        <path id="パス_1523" data-name="パス 1523" d="M187.207,18.92a.918.918,0,0,0,1.037-.24.56.56,0,0,1,.453-1.022.919.919,0,0,0-.554-.992l-1.389.259-.3.337v.507Z" transform="translate(-184.594 -16.603)" fill="none" stroke="#936717" stroke-miterlimit="10" stroke-width="1"/>
        <path id="パス_1524" data-name="パス 1524" d="M253.123,83.711a.918.918,0,0,1,.24-1.037.56.56,0,0,0,1.022-.453.919.919,0,0,1,.992.554l-.258,1.389-.337.3h-.507Z" transform="translate(-232.356 -63.607)" fill="none" stroke="#936717" stroke-miterlimit="10" stroke-width="1"/>
      </g>
      <g id="グループ_203" data-name="グループ 203" transform="translate(2.952 2.95)">
        <path id="パス_1525" data-name="パス 1525" d="M24.316,28.884a4.855,4.855,0,0,1-.447-3.22s-3.014-.487-2.727-6.773c0,0-.231-1.734-3.325-1.7s-5.405.037-5.405.037" transform="translate(-12.35 -16.948)" fill="none" stroke="#936717" stroke-miterlimit="10" stroke-width="1"/>
        <path id="パス_1526" data-name="パス 1526" d="M24.48,28.72a4.855,4.855,0,0,0-3.22-.447s-.487-3.014-6.773-2.727c0,0-1.734-.231-1.7-3.325s.037-5.405.037-5.405" transform="translate(-12.622 -16.676)" fill="none" stroke="#936717" stroke-miterlimit="10" stroke-width="1"/>
        <path id="パス_1527" data-name="パス 1527" d="M53.444,58.867a.95.95,0,1,1,1.322-1.321C55.2,57.984,54.9,59,54.9,59S53.882,59.306,53.444,58.867Z" transform="translate(-41.511 -45.621)" fill="none" stroke="#936717" stroke-miterlimit="10" stroke-width="1"/>
        <line id="線_29" data-name="線 29" x2="5.423" y2="5.486" transform="translate(2.724 2.65)" fill="none" stroke="#936717" stroke-miterlimit="10" stroke-width="1"/>
        <path id="パス_1528" data-name="パス 1528" d="M34,32.172s-1.435-2.023-1.317-3.222a1.693,1.693,0,0,0-1.294-1.74" transform="translate(-25.963 -24.129)" fill="none" stroke="#936717" stroke-miterlimit="10" stroke-width="1"/>
        <path id="パス_1529" data-name="パス 1529" d="M28.332,38.356s-2.023-1.435-3.222-1.317a1.693,1.693,0,0,1-1.74-1.294" transform="translate(-20.207 -30.252)" fill="none" stroke="#936717" stroke-miterlimit="10" stroke-width="1"/>
        <path id="パス_1530" data-name="パス 1530" d="M17.328,48.046A4.067,4.067,0,0,0,12.249,51.7c-.675,4.688,5.363,7.281,8.027,4.3,0,0-.431,6.513-7.628,6" transform="translate(-12.196 -39.005)" fill="none" stroke="#936717" stroke-miterlimit="10" stroke-width="1"/>
        <path id="パス_1531" data-name="パス 1531" d="M43.649,21.591s-.113-4.6,4.546-4.884,6.437,6.268,3.416,8.018c0,0,6.476.083,6.08-7.775" transform="translate(-34.753 -16.592)" fill="none" stroke="#936717" stroke-miterlimit="10" stroke-width="1"/>
        <path id="パス_1532" data-name="パス 1532" d="M32.456,27.339c1.813-.483,1.611-2.7.483-3.867a2.811,2.811,0,0,0-4.471,2.659c.4,3.263,4.27,3.5,4.27,3.5-.926,2.5.6,7.009.6,7.009a10.39,10.39,0,0,0-7.291-.564s-.04-4.31-3.5-4.35-2.538,3.948-2.538,3.948.545,2.394,3.42,1.259" transform="translate(-17.718 -21.05)" fill="none" stroke="#936717" stroke-miterlimit="10" stroke-width="1"/>
        <path id="パス_1533" data-name="パス 1533" d="M21.422,21.6H17.2l-.044,4.046" transform="translate(-15.755 -20.106)" fill="none" stroke="#936717" stroke-miterlimit="10" stroke-width="1"/>
        <path id="パス_1534" data-name="パス 1534" d="M14.676,84.672a.918.918,0,0,0-.24-1.037.56.56,0,0,1-1.022-.453.919.919,0,0,0-.992.554l.259,1.389.337.3h.507Z" transform="translate(-12.359 -64.264)" fill="none" stroke="#936717" stroke-miterlimit="10" stroke-width="1"/>
        <path id="パス_1535" data-name="パス 1535" d="M79.467,18.578a.918.918,0,0,1-1.037-.24.56.56,0,0,0-.453-1.022.919.919,0,0,1,.554-.992l1.389.259.3.337v.507Z" transform="translate(-59.363 -16.325)" fill="none" stroke="#936717" stroke-miterlimit="10" stroke-width="1"/>
      </g>
      <rect id="長方形_1359" data-name="長方形 1359" width="73.481" height="119.382" transform="translate(1.441 1.266)" fill="none" stroke="#936717" stroke-miterlimit="10" stroke-width="0.75"/>
      <g id="グループ_205" data-name="グループ 205" transform="translate(16.787 38.467)">
        <path id="パス_1536" data-name="パス 1536" d="M105.213,157.505a12.075,12.075,0,0,0,.256-3.765c-.051-2.061-2.538-3.492-3.015-2.146s1.261,2.2,1.261,2.2-1.735-2,.1-1.707,1.487,5.678-1.19,3.272a5.42,5.42,0,0,0-5.34-1.39,3.262,3.262,0,0,0,1.25-3.334c-.306-2.209-3.6-2.1-4-1.292a1.2,1.2,0,0,0,.042,1.32,1.257,1.257,0,0,1,2.417.555c.07,1.723-2.917,1.806-4.112,1.987s-2.831-.21-2.9-.959.376-.981,1-1.021a.576.576,0,0,1,.681.561.357.357,0,0,1-.3.361c-.247.033-.427-.24-.427-.24a.516.516,0,0,0,.608.668.714.714,0,0,0,.724-.757c-.086-1.741-1.9-1.338-2.676-.993s-3.416.136-3.513-1.547a1.73,1.73,0,0,1,1.862-1.936c.564,0,.964.278,1,.768s-.27.613-.466.613-.524.007-.541-.3.166-.286.273-.286.187.161.187.161c.137-.474-.9-.977-.993.121s2.309,1.612,2.353-.289a1.466,1.466,0,0,0-2.19-1.511,1.942,1.942,0,0,1-1.836-.162.736.736,0,0,1-.329-.937c.414-.1,1.028-.227,1.054-.843s-.327-.824-.648-.824-.639.093-.666.482.444.427.444.427a.383.383,0,0,1,.159-.6c.1,0,.285.142.268.487a.5.5,0,0,1-.517.531c-.276-.005-.64-.214-.669-.91a.749.749,0,0,1,.669-.778c-.673.012-1.075-1.586-1.075-1.586s-.4,1.6-1.075,1.586a.749.749,0,0,1,.669.778c-.03.7-.393.905-.669.91a.5.5,0,0,1-.517-.531c-.016-.345.164-.487.268-.487a.383.383,0,0,1,.159.6s.471-.038.443-.427-.345-.482-.666-.482-.673.208-.648.824.64.742,1.054.843a.736.736,0,0,1-.33.937,1.942,1.942,0,0,1-1.836.162,1.466,1.466,0,0,0-2.189,1.511c.043,1.9,2.45,1.387,2.353.289s-1.13-.6-.994-.121c0,0,.081-.161.188-.161s.29-.021.273.286-.345.3-.541.3-.507-.123-.466-.613.441-.768,1-.768a1.73,1.73,0,0,1,1.862,1.936c-.1,1.683-2.736,1.892-3.513,1.547s-2.59-.748-2.676.993a.715.715,0,0,0,.724.757.516.516,0,0,0,.608-.668s-.18.274-.428.24a.357.357,0,0,1-.3-.361.575.575,0,0,1,.681-.561c.621.04,1.068.271,1,1.021s-1.707,1.14-2.9.959-4.181-.264-4.112-1.987a1.257,1.257,0,0,1,2.417-.555,1.2,1.2,0,0,0,.042-1.32c-.4-.806-3.695-.917-4,1.292a3.261,3.261,0,0,0,1.25,3.334,5.42,5.42,0,0,0-5.34,1.39c-2.677,2.406-3.028-2.974-1.19-3.272s.1,1.707.1,1.707,1.737-.852,1.261-2.2-2.964.085-3.015,2.146a12.094,12.094,0,0,0,.256,3.765s-1.349,1.646,1.132,3.5a1.364,1.364,0,0,0-.466,1.275c.126.837.562,1.192.78,1.2s.454-.3.454-.3-.615.229-.615-.266a.888.888,0,0,1,.93-.972s.989-.109,1.338,1.571a4.1,4.1,0,0,0,3.2,3.325,15.376,15.376,0,0,0,3.15.612c.77.07,1.937.128,1.756,1.147s-1.505.509-1.392-.113c0,0,.02-.509.393-.493s.441.276.436.314.011.239-.255.212c0,0,.138-.292-.143-.3s-.324.494.032.5.489-.027.5-.409-.169-.676-.8-.64a.964.964,0,0,0-.822,1.1,1.068,1.068,0,0,0,1.022.94,3.527,3.527,0,0,0,1.379-.466s-.283,1.214.867,1.214,1.1-.739,1.1-.922a.637.637,0,0,0-.712-.749c-.73.018-.715.852-.254.914,0,0,.228.052.269-.243,0,0-.184.13-.253-.064s.049-.318.159-.318c0,0,.354-.078.318.354s-.228.543-.549.531-.636-.163-.607-.765.492-.8,1.082-.748,2.187.708.983,1.676a1.649,1.649,0,0,0,1.605-.4,1.7,1.7,0,0,1,1.55-.763,3.429,3.429,0,0,1,1.18.527.478.478,0,0,0,.574.488s-.322-.252.087-.842.567-.448.748-.448.41.175.391.551a.516.516,0,0,1-.6.376s.843.453.843.916c0-.463.843-.916.843-.916a.516.516,0,0,1-.6-.376c-.02-.376.21-.551.391-.551s.339-.143.748.448.087.842.087.842a.478.478,0,0,0,.574-.488,3.426,3.426,0,0,1,1.18-.527,1.7,1.7,0,0,1,1.55.763,1.649,1.649,0,0,0,1.605.4c-1.2-.968.393-1.621.984-1.676s1.053.147,1.082.748-.286.753-.607.765-.514-.1-.549-.531.318-.354.318-.354c.111,0,.229.124.159.318s-.253.064-.253.064c.042.295.269.243.269.243.461-.062.476-.9-.254-.914a.637.637,0,0,0-.712.749c0,.183-.046.922,1.1.922s.867-1.214.867-1.214a3.525,3.525,0,0,0,1.379.466,1.068,1.068,0,0,0,1.022-.94.964.964,0,0,0-.822-1.1c-.63-.036-.809.257-.8.64s.144.415.5.409.314-.511.032-.5-.144.3-.144.3c-.266.027-.25-.175-.255-.212s.064-.3.436-.314.393.493.393.493c.113.622-1.211,1.132-1.392.113s.986-1.077,1.756-1.147a15.376,15.376,0,0,0,3.15-.612,4.1,4.1,0,0,0,3.2-3.325c.35-1.68,1.338-1.571,1.338-1.571a.888.888,0,0,1,.93.972c0,.495-.615.266-.615.266s.236.307.454.3.653-.367.78-1.2a1.364,1.364,0,0,0-.466-1.275C106.563,159.151,105.213,157.505,105.213,157.505Zm-6.005-1.878c1.03.029.446-.858.057-.638s.189.426.189.426-.812.255-.941-.455.967-.322,1.212-.2.69.425.619.9-1.243.168-2.106.111a3.423,3.423,0,0,0-1.76.517C97.867,155.026,98.178,155.6,99.208,155.627Zm-1.825,1.145c1.276.118,1.607-.553,1.607-.553s.834,4.48-4.245,6.54-8.323-.625-8.323-.625C89.761,156.151,96.107,156.654,97.383,156.772Zm-11.557,4.215s-.288-2.148.784-2.774,2.218-.5,2.209.246c0,0,.169.479-1.29.818A2.263,2.263,0,0,0,85.827,160.987Zm10.43-7.179-.045.965.74-.135c-.651,1.615-2.871,1.323-2.871,1.323C94.664,155.85,96.256,153.808,96.256,153.808Zm-4.981,2.581c1.587.033,1.719-1.029,1.719-1.281s.1-.908-.613-.963a1.176,1.176,0,0,0-1.051.7,1.119,1.119,0,1,1,2.233.049c.153,1.889-1.452,2.083-4.03,1.926a6.335,6.335,0,0,0-4.389,1.577C87.025,155.807,89.687,156.356,91.275,156.389Zm-2.966-3.268a2.968,2.968,0,0,1,.517-1.735c-.194,1.371,1.086,1.289,1.086,2.511s-1.7,1.8-1.7,1.8C89.757,154.2,88.424,153.931,88.309,153.122Zm-1.019,2.628a4.361,4.361,0,0,0-2.177,1.531c-1.414-3.147.812-4.663.812-4.663a1.825,1.825,0,0,1-.32,1.68c1.254.1,1.685-1.68,1.685-1.68C88.269,153.065,88.754,155.284,87.29,155.749Zm-2.633-5.439-.017.059a.1.1,0,0,1,.017-.059c.06-.2.272-.862.491-1,.258-.162.559-.055.455.213C85.552,149.656,84.777,150.091,84.657,150.31Zm.831.593c-.037.1-.6.414-.692.574-.008.026-.012.043-.012.043a.076.076,0,0,1,.012-.043c.044-.146.2-.63.359-.73C85.343,150.63,85.564,150.707,85.488,150.9Zm2.292.847s-2.478.016-2.891,1.123C84.889,152.874,85.649,150.313,87.78,151.75Zm-2.18-4.475c.414-.231.9-.079.73.3-.081.185-1.3.8-1.515,1.113l-.031.092a.139.139,0,0,1,.031-.092C84.915,148.4,85.252,147.47,85.6,147.276Zm-1.206-1.816c-.016-.085-.024-.14-.024-.14h.049s-.008.055-.024.14c.064.338.258,1.181.607,1.215a3.661,3.661,0,0,0-.607,1.36,1.7,1.7,0,0,1,.024.277H84.37a1.725,1.725,0,0,1,.024-.277,3.656,3.656,0,0,0-.607-1.36C84.136,146.641,84.33,145.8,84.394,145.46Zm-1.209,4.066c-.1-.269.2-.375.455-.213.219.137.431.8.491,1a.1.1,0,0,1,.017.059l-.017-.059C84.011,150.091,83.236,149.656,83.185,149.525Zm.819,2s0-.017-.012-.043c-.087-.16-.654-.479-.691-.574-.076-.2.144-.274.333-.156.16.1.315.585.359.73A.076.076,0,0,1,84,151.521Zm-1.546-3.941c-.167-.384.316-.536.73-.3.347.194.685,1.123.785,1.417a.137.137,0,0,1,.031.092s-.011-.036-.031-.092C83.762,148.377,82.539,147.765,82.458,147.58Zm1.441,5.294c-.413-1.107-2.891-1.123-2.891-1.123C83.139,150.313,83.9,152.874,83.9,152.874Zm-2.4-.257s.431,1.783,1.685,1.68a1.825,1.825,0,0,1-.32-1.68s2.227,1.517.812,4.663a4.361,4.361,0,0,0-2.177-1.531C80.034,155.284,80.519,153.065,81.5,152.617Zm-1.536-1.23a2.968,2.968,0,0,1,.517,1.735c-.116.809-1.448,1.074.094,2.578,0,0-1.7-.578-1.7-1.8S80.156,152.758,79.962,151.387ZM75.225,154.9a1.119,1.119,0,1,1,2.233-.049,1.176,1.176,0,0,0-1.051-.7c-.711.055-.613.712-.613.963s.131,1.314,1.719,1.281,4.25-.582,6.131,2.009a6.335,6.335,0,0,0-4.389-1.577C76.678,156.978,75.072,156.784,75.225,154.9Zm6.033,4.381c-1.459-.339-1.29-.818-1.29-.818-.009-.744,1.137-.872,2.209-.246s.784,2.774.784,2.774A2.263,2.263,0,0,0,81.258,159.276Zm1.108,2.858s-3.244,2.685-8.322.625-4.245-6.54-4.245-6.54.331.671,1.606.553S79.027,156.151,82.366,162.134Zm-9.789-7.361-.045-.965s1.592,2.041,2.176,2.154c0,0-2.221.292-2.871-1.323Zm-3.514-.012c.245-.123,1.341-.509,1.212.2s-.941.455-.941.455.579-.207.189-.426-.974.667.057.638,1.34-.6,2.731.658a3.424,3.424,0,0,0-1.76-.517c-.864.056-2.036.359-2.107-.111S68.818,154.883,69.063,154.761Zm-4.878,2.815a2.991,2.991,0,0,0-.477-1.218l1.023.786a9.155,9.155,0,0,1,2.549-1.382,1.186,1.186,0,0,1,.2-.08l-.2.08a3.755,3.755,0,0,0-1.9,2.215,3.3,3.3,0,0,0,.5,2.539C65.059,160.3,64.29,158.291,64.185,157.576Zm3.316,4.887a.449.449,0,1,1,.449.449A.449.449,0,0,1,67.5,162.463Zm1.169,2.177a.449.449,0,1,1,.449-.449A.449.449,0,0,1,68.669,164.639Zm1.44,1.44a.449.449,0,1,1,.449-.449A.449.449,0,0,1,70.109,166.079Zm2.159.72a.449.449,0,1,1,.449-.449A.449.449,0,0,1,72.269,166.8Zm-2.9-4.175c-.242-1.556-1.032-1.925-1.032-1.925.451-.272,2.177,2.3,3.225,3.2a12.474,12.474,0,0,0,3.462,1.632C70.7,165.824,69.609,164.18,69.367,162.624Zm5.349,4.319a.449.449,0,1,1,.449-.449A.449.449,0,0,1,74.716,166.943ZM69.131,158.1s-.044-.929-1.431-.83-1.2,1.925-1.2,1.925a.868.868,0,0,0,.864.849.724.724,0,0,0,.811-.849s.081-.5-.556-.439-.342.41-.342.41-.576-.641.449-.781a.688.688,0,0,1,.856.837s.009,1.487-1.3,1.416-1.427-.836-1.4-1.826a2.064,2.064,0,0,1,2.234-2.121,1.237,1.237,0,0,1,1.3,1.118c.1,1.162,1.55,5.692,8.392,6.364C77.8,164.176,70.229,164.452,69.131,158.1Zm7.23,7.665c-.088-1.885,3.3-1.027,4.39-.7a1.819,1.819,0,0,1,.333.1s-.125-.042-.333-.1c-1.132-.256-3.573-.075-3.6,1.014-.032,1.214,1.168.838,1.168.838C78.084,167.28,76.466,168.01,76.362,165.766Zm1.667.918a.549.549,0,1,1,.55-.549A.549.549,0,0,1,78.029,166.684Zm3.341,1.35c-1.664.32-2.656.126-2.56-1.142,0,0,0-1.055.954-1.061s.963.469.925.841-.52.475-.726.475-.449-.032-.4-.456a.242.242,0,1,1,.481.019s.2.007.18-.231-.27-.337-.539-.316a.678.678,0,0,0-.617.663.841.841,0,0,0,.893.944c.777.032,3.731-.547,3.732.179A5.031,5.031,0,0,0,81.37,168.034Zm2.832.136a1.79,1.79,0,0,0-1.392-1.543c-1.392-.486-1.368-1.275-1.289-2.643s2.144-2.335,2.236-.612-1.166,1.258-1.1.365c0,0,.473.8.666-.057s-1.359-1.264-1.309.522S84.412,166.966,84.2,168.17ZM84.394,162c-.138,0-.874-.035-.859-1.137a5.25,5.25,0,0,1,.859-2.413.213.213,0,0,1-.024-.051h.049a.214.214,0,0,1-.024.051,5.253,5.253,0,0,1,.859,2.413C85.268,161.963,84.532,162,84.394,162Zm.192,6.172c-.21-1.2,2.144-2.18,2.194-3.967s-1.5-1.384-1.31-.522.666.057.666.057c.061.893-1.2,1.359-1.105-.365s2.157-.756,2.236.612.1,2.156-1.289,2.643A1.79,1.79,0,0,0,84.586,168.17Zm2.832-.136a5.031,5.031,0,0,0-2.325-.085c0-.726,2.955-.147,3.732-.179a.841.841,0,0,0,.893-.944.678.678,0,0,0-.617-.663c-.27-.021-.52.078-.539.316s.18.231.18.231a.242.242,0,1,1,.482-.019c.051.424-.193.456-.4.456s-.687-.1-.726-.475-.025-.848.925-.841.954,1.061.954,1.061C90.074,168.161,89.082,168.354,87.418,168.034Zm2.792-1.9a.549.549,0,1,1,.549.549A.549.549,0,0,1,90.209,166.135Zm.26.78s1.2.376,1.168-.838c-.028-1.089-2.469-1.27-3.6-1.014-.208.062-.333.1-.333.1a1.822,1.822,0,0,1,.333-.1c1.089-.323,4.478-1.18,4.39.7C92.322,168.01,90.7,167.28,90.469,166.914Zm3.6.029a.449.449,0,1,1,.449-.449A.449.449,0,0,1,94.072,166.943Zm2.448-.144a.449.449,0,1,1,.449-.449A.449.449,0,0,1,96.519,166.8Zm2.16-.72a.449.449,0,1,1,.449-.449A.449.449,0,0,1,98.679,166.079Zm-4.913-.545a12.478,12.478,0,0,0,3.462-1.632c1.048-.9,2.773-3.475,3.225-3.2,0,0-.79.369-1.032,1.925S98.093,165.824,93.766,165.534Zm6.352-.895a.449.449,0,1,1,.449-.449A.449.449,0,0,1,100.119,164.639Zm.72-1.728a.449.449,0,1,1,.449-.449A.449.449,0,0,1,100.838,162.912Zm.676-2.271c-1.314.071-1.305-1.416-1.305-1.416a.688.688,0,0,1,.856-.837c1.025.14.449.781.449.781s.295-.354-.342-.41-.556.439-.556.439a.724.724,0,0,0,.811.849.868.868,0,0,0,.864-.849s.184-1.826-1.2-1.925-1.431.83-1.431.83c-1.1,6.35-8.671,6.074-8.671,6.074,6.843-.671,8.293-5.2,8.392-6.364a1.237,1.237,0,0,1,1.3-1.118,2.064,2.064,0,0,1,2.234,2.121C102.942,159.806,102.829,160.57,101.515,160.641Zm1.394-.125a3.3,3.3,0,0,0,.5-2.539,3.754,3.754,0,0,0-1.9-2.215l-.2-.08a1.166,1.166,0,0,1,.2.08,9.155,9.155,0,0,1,2.549,1.382l1.023-.786a2.989,2.989,0,0,0-.477,1.218C104.5,158.291,103.729,160.3,102.908,160.516Z" transform="translate(-62.65 -141.9)" fill="#936717"/>
        <g id="グループ_204" data-name="グループ 204" transform="translate(0 31.206)">
          <path id="パス_1537" data-name="パス 1537" d="M61.17,260.482a5.617,5.617,0,0,0,1.253-.372v.691c.026-.017.717-.415.751-.432a1.222,1.222,0,0,1,.5-.173,1.559,1.559,0,0,1,1.529,1.65,2.451,2.451,0,0,1-2.168,2.35,1.429,1.429,0,0,1-.613-.155v1.166c0,.639.069.691.734.752v.242H61.109v-.242c.562-.061.631-.1.631-.683v-3.931c0-.519-.017-.553-.57-.631Zm1.253,2.955a1.251,1.251,0,0,0,.821.337c.751,0,1.235-.631,1.235-1.6,0-.933-.544-1.46-1.158-1.46a1.727,1.727,0,0,0-.9.371Z" transform="translate(-61.109 -257.881)" fill="#936717"/>
          <path id="パス_1538" data-name="パス 1538" d="M84.3,263.578a1.968,1.968,0,0,1-1.434.838,1.725,1.725,0,0,1-1.693-1.857,2.22,2.22,0,0,1,.561-1.512,1.773,1.773,0,0,1,1.287-.63,1.348,1.348,0,0,1,1.322,1.339c-.008.173-.035.251-.173.285-.173.035-1.279.112-2.307.147-.026,1.158.682,1.633,1.3,1.633a1.462,1.462,0,0,0,1-.441Zm-1.486-2.834c-.4,0-.786.372-.907,1.071.484,0,.968,0,1.478-.026.156,0,.207-.043.207-.173A.8.8,0,0,0,82.817,260.744Z" transform="translate(-75.5 -258.101)" fill="#936717"/>
          <path id="パス_1539" data-name="パス 1539" d="M99.258,264.246H97.271V264c.544-.052.6-.1.6-.657v-1.8c0-.57-.035-.6-.536-.657v-.216a4.783,4.783,0,0,0,1.218-.354v.95c.3-.449.665-.924,1.1-.924a.446.446,0,0,1,.5.415.58.58,0,0,1-.294.475.171.171,0,0,1-.225-.017.546.546,0,0,0-.389-.216c-.182,0-.5.268-.691.709v1.624c0,.57.043.613.709.666Z" transform="translate(-87.043 -258.035)" fill="#936717"/>
          <path id="パス_1540" data-name="パス 1540" d="M113.934,261.548c-.156-.5-.38-.847-.907-.847a.524.524,0,0,0-.536.561c0,.372.251.544.734.769.743.354,1.115.613,1.115,1.184a1.286,1.286,0,0,1-1.409,1.2,2.257,2.257,0,0,1-1.028-.242c-.043-.251-.121-.726-.156-1.011l.251-.043c.156.553.458,1,1.063,1a.576.576,0,0,0,.6-.587c0-.389-.233-.587-.691-.812-.6-.294-1.1-.57-1.1-1.192a1.2,1.2,0,0,1,1.348-1.114,4.442,4.442,0,0,1,.83.112c.026.207.086.752.13.959Z" transform="translate(-97.425 -258.101)" fill="#936717"/>
          <path id="パス_1541" data-name="パス 1541" d="M128.142,260.416a1.858,1.858,0,0,1,1.883,1.935,1.936,1.936,0,0,1-1.883,2.065,1.9,1.9,0,0,1-1.918-1.926A1.979,1.979,0,0,1,128.142,260.416Zm-.1.294c-.527,0-1,.51-1,1.512,0,1.1.484,1.892,1.192,1.892.536,0,.985-.389.985-1.572C129.213,261.53,128.8,260.71,128.038,260.71Z" transform="translate(-107.807 -258.101)" fill="#936717"/>
          <path id="パス_1542" data-name="パス 1542" d="M147.138,264.246V264c.5-.052.553-.113.553-.7v-1.425c0-.6-.216-1.011-.786-1.011a1.509,1.509,0,0,0-.959.449v2.021c0,.6.052.613.561.666v.242h-1.866V264c.57-.061.622-.1.622-.666v-1.78c0-.561-.061-.587-.527-.665v-.225a4.9,4.9,0,0,0,1.21-.346v.682c.173-.121.363-.251.587-.4a1.325,1.325,0,0,1,.717-.259c.691,0,1.123.51,1.123,1.348v1.641c0,.588.052.613.553.666v.242Z" transform="translate(-121.015 -258.035)" fill="#936717"/>
          <path id="パス_1543" data-name="パス 1543" d="M167.595,264.416a.632.632,0,0,1-.406-.164.81.81,0,0,1-.207-.389,2.716,2.716,0,0,1-1.037.553,1.059,1.059,0,0,1-1.054-1.063.879.879,0,0,1,.708-.864,6.813,6.813,0,0,0,1.365-.562v-.173c0-.613-.311-.968-.76-.968a.5.5,0,0,0-.406.2,1.853,1.853,0,0,0-.233.561.24.24,0,0,1-.251.2.415.415,0,0,1-.38-.38c0-.121.112-.225.285-.346a3.624,3.624,0,0,1,1.244-.6,1.135,1.135,0,0,1,1.166,1.235v1.667c0,.4.147.518.3.518a.687.687,0,0,0,.311-.1l.087.242Zm-.63-2.186c-.19.1-.6.277-.8.363-.328.147-.527.311-.527.631a.628.628,0,0,0,.622.665,1.148,1.148,0,0,0,.709-.311Z" transform="translate(-135.537 -258.101)" fill="#936717"/>
          <path id="パス_1544" data-name="パス 1544" d="M180.926,258.442V258.2c.553-.052.622-.1.622-.665V253.4c0-.527-.043-.579-.6-.648v-.225a6.133,6.133,0,0,0,1.279-.294v5.3c0,.57.052.613.613.665v.242Z" transform="translate(-147.037 -252.23)" fill="#936717"/>
          <path id="パス_1545" data-name="パス 1545" d="M193.914,271.815a.515.515,0,0,1-.527-.553.525.525,0,0,1,.527-.553.539.539,0,0,1,.544.553A.529.529,0,0,1,193.914,271.815Z" transform="translate(-155.974 -265.482)" fill="#936717"/>
          <path id="パス_1546" data-name="パス 1546" d="M202.977,259.953v-.242c.708-.078.777-.113.777-.847v-3.43c0-.743-.069-.778-.777-.855v-.242h2.315v.242c-.717.078-.786.112-.786.855v3.43c0,.743.069.769.786.847v.242Z" transform="translate(-162.851 -253.741)" fill="#936717"/>
        </g>
      </g>
    </g>
  </g>
</svg>
