<svg xmlns="http://www.w3.org/2000/svg" width="189" height="172" viewBox="0 0 189 172">
  <g id="グループ_78" data-name="グループ 78" transform="translate(-85 -202)">
    <g id="グループ_51" data-name="グループ 51" transform="translate(-105.86 -31.727)">
      <path id="パス_1" data-name="パス 1" d="M346.639,359.468H304.278c-4.852,0-8.8-3.5-8.8-7.8V297.042a11.461,11.461,0,0,1-1.212-.6l-23.812,36.33c-2.437,3.718-7.834,4.987-12.027,2.827l-36.633-18.848A7.925,7.925,0,0,1,217.715,312a6.974,6.974,0,0,1,.887-5.911l1.937-2.957a17.511,17.511,0,0,1-5.63-11.785c-.56-7.363,3.781-14.184,6.113-17.849l.5-.78c1.825-2.913,7.778-9.716,13.585-10.944,3.208-.678,7.651.525,11.3,1.9l3.693-5.635a11.219,11.219,0,0,1-.736-1.449,11.365,11.365,0,0,1,2.49-11.969,11.17,11.17,0,0,1,9.086-3.338,9.313,9.313,0,0,1,11.014-3.895c3.052-2.685,6.749-4.666,12.361-3.115,4.894,1.352,8.171,4.841,8.9,7.878,4.267.569,7.465,2.5,8.863,4.357,2.332,3.1,3.342,6.06,2.985,8.7,2.61.6,5.193,2.023,6.169,4.339a8.067,8.067,0,0,1,.033,6.833c.063.067.126.137.193.209a18.219,18.219,0,0,1,5.576-3.577c2.26-.983,6.122-1.231,10.133.174,2.351-2.3,7.163-3.86,12.163-2.854,5.73,1.157,7.8,4.517,8.923,8.194a8.858,8.858,0,0,1,5.219,2.613,8.086,8.086,0,0,1,2.1,5.655,9.561,9.561,0,0,1,5.964,6.929,11.708,11.708,0,0,1-4.629,11.462,13.274,13.274,0,0,1-1.459.924v6.517c3.934.436,8.459,1.372,10.847,3.386h0c4.327,3.646,5.621,12.177,5.546,15.51l-.014.894c-.06,4.208-.172,12.036-4.829,18.154a20.834,20.834,0,0,1-11.55,7.686v3.419C355.437,355.97,351.491,359.468,346.639,359.468Zm-53.274-68.857,1.874,1.849a6.878,6.878,0,0,0,2.929,1.654l1.391.414v57.144a4.478,4.478,0,0,0,4.719,4.179h42.362a4.478,4.478,0,0,0,4.719-4.179v-6.392l1.705-.251a16.467,16.467,0,0,0,10.54-6.485c3.977-5.221,4.078-12.349,4.132-16.177l.016-.92c.083-3.686-1.544-10.514-4.278-12.819-1.458-1.228-5.291-2.19-10.254-2.576l-1.861-.146v-12l1.156-.493a9.038,9.038,0,0,0,1.793-1.02,8.28,8.28,0,0,0,3.208-8.008c-.335-1.6-1.431-3.719-4.736-4.692l-1.616-.474.237-1.494a5.1,5.1,0,0,0-1.082-4.281,5.328,5.328,0,0,0-3.816-1.459l-1.554-.069-.339-1.343c-.941-3.732-2.206-5.906-6.194-6.712-4.527-.918-8.153,1.213-8.64,2.286L328.929,268l-2-.936c-3.5-1.637-6.829-1.366-8.108-.81-2.824,1.226-4.743,2.738-5.553,4.367l-1.8,3.626-1.912-3.579a9.248,9.248,0,0,0-2.135-2.632L306.111,267l.95-1.31a4.652,4.652,0,0,0,.342-4.884c-.636-1.507-3.273-2.26-4.943-2.313l-2.931-.095,1.119-2.4c1.219-2.618-.711-5.813-1.97-7.486-.792-1.048-3.519-2.764-7.47-2.9l-2.26-.081.323-1.983c.184-1.143-1.749-4.6-6.176-5.823-3.9-1.075-6.232.241-9.161,3.049l-1.055,1.013-1.38-.634a5.615,5.615,0,0,0-4.129-.436,5.943,5.943,0,0,0-3.363,3.221l-.641,1.4-1.667-.309a7.108,7.108,0,0,0-6.754,1.949,8.045,8.045,0,0,0-1.765,8.35,7.616,7.616,0,0,0,.973,1.681l.722.941-6.8,10.382-1.693-.7c-4.511-1.877-8.371-2.745-10.327-2.336-3.67.776-8.945,5.957-10.965,9.183l-.508.8c-2.123,3.335-6.074,9.544-5.6,15.826a13.883,13.883,0,0,0,5.442,10.3l1.331.975L222.13,307.9a3.75,3.75,0,0,0-.472,3.171,4.256,4.256,0,0,0,2.185,2.545l36.633,18.848a5.073,5.073,0,0,0,6.45-1.516Zm57.993,51.63V308.966l2.151.1c1.7.081,5.943.281,8.775,3.289,2.813,2.989,2.608,7.7,2.427,11.848l-.04.955A23.252,23.252,0,0,1,360.479,337a12.021,12.021,0,0,1-6.382,4.353Zm4.079-29.353v23.77a5.556,5.556,0,0,0,1.521-1.482,20,20,0,0,0,3.635-10.143l.04-.968c.153-3.5.325-7.47-1.482-9.391A6.6,6.6,0,0,0,355.437,312.889ZM227.477,299.75l-1.868-1.983a10.1,10.1,0,0,1-3.05-6.606h0a22.9,22.9,0,0,1,3.085-12.1l.5-.836c2.2-3.675,4.689-7.839,8.817-9.174,4.16-1.349,7.941.374,9.365,1.022l1.914.869-.989,1.688Zm10.7-27.583a5.859,5.859,0,0,0-1.812.276c-2.655.857-4.755,4.371-6.61,7.469l-.509.85a19.662,19.662,0,0,0-2.6,10.387h0a4.783,4.783,0,0,0,.474,1.96l13.471-20.555A8.351,8.351,0,0,0,238.174,272.167Z" transform="translate(0 0)" fill="#fff"/>
    </g>
    <text id="Nomimatti" transform="translate(85 364)" fill="#fff" font-size="33" font-family="Arial-Black, Arial Black" font-weight="800"><tspan x="0" y="0">Nomimatti</tspan></text>
  </g>
</svg>
